<?xml version="1.0" encoding="UTF-8"?>
<svg id="Layer_2" data-name="Layer 2" xmlns="http://www.w3.org/2000/svg" viewBox="0 0 1000 1000">
  <defs>
    <style>
      .cls-1 {
        fill: #e4e3d4;
      }
    </style>
  </defs>
  <g id="Layer_1-2" data-name="Layer 1">
    <g>
      <g>
        <path class="cls-1" d="M348.72,60.27h301.75c61.62,0,118.76,18.75,165.86,50.4l2.91-3.59-59.87-57.99C726.92,17.67,682.93,0,637.06,0h-275.2c-45.87,0-89.86,17.67-122.31,49.1l-59.27,57.41,3.06,3.77c46.93-31.37,103.77-50,165.37-50Z"/>
        <path class="cls-1" d="M618.28,87.7h-237.64c-39.64,0-77.57,15.38-105.64,42.9l-41.91,40.9,4.03,4.96c38.26-23.2,83.32-36.94,131.86-36.94h261.14c48.65,0,94.02,13.85,132.44,37.33l3.87-4.76-42.51-41.5c-28.07-27.42-66-42.9-105.64-42.9Z"/>
        <path class="cls-1" d="M599.5,166.94h-200.09c-33.41,0-65.29,13.09-88.97,36.69l-28.41,28.11,4.36,5.36c30.4-16.86,65.42-26.79,102.84-26.79h220.53c37.62,0,72.94,10.05,103.5,27.19l4.2-5.17-29-28.71c-23.68-23.41-55.56-36.69-88.97-36.69Z"/>
        <path class="cls-1" d="M580.72,238.1h-162.53c-27.18,0-53,10.81-72.3,30.49l-18.55,18.92,3.75,4.61c23.63-12.02,50.24-19.09,78.41-19.09h179.92c28.45,0,55.36,7.21,79.11,19.56l3.63-4.47-19.15-19.53c-19.3-19.4-45.12-30.49-72.3-30.49Z"/>
      </g>
      <g>
        <path class="cls-1" d="M60.27,651.28v-301.75c0-61.62,18.75-118.76,50.4-165.86l-3.59-2.91-57.99,59.87C17.67,273.08,0,317.07,0,362.94v275.2c0,45.87,17.67,89.86,49.1,122.31l57.41,59.27,3.77-3.06c-31.37-46.93-50-103.77-50-165.37Z"/>
        <path class="cls-1" d="M87.7,381.72v237.64c0,39.64,15.38,77.57,42.9,105.64l40.9,41.91,4.96-4.03c-23.2-38.26-36.94-83.32-36.94-131.86v-261.14c0-48.65,13.85-94.02,37.33-132.44l-4.76-3.87-41.5,42.51c-27.42,28.07-42.9,66-42.9,105.64Z"/>
        <path class="cls-1" d="M166.94,400.5v200.09c0,33.41,13.09,65.29,36.69,88.97l28.11,28.41,5.36-4.36c-16.86-30.4-26.79-65.42-26.79-102.84v-220.53c0-37.62,10.05-72.94,27.19-103.5l-5.17-4.2-28.71,29c-23.41,23.68-36.69,55.56-36.69,88.97Z"/>
        <path class="cls-1" d="M238.1,419.28v162.53c0,27.18,10.81,53,30.49,72.3l18.92,18.55,4.61-3.75c-12.02-23.63-19.09-50.24-19.09-78.41v-179.92c0-28.45,7.21-55.36,19.56-79.11l-4.47-3.63-19.53,19.15c-19.4,19.3-30.49,45.12-30.49,72.3Z"/>
      </g>
      <g>
        <path class="cls-1" d="M651.28,939.73h-301.75c-61.62,0-118.76-18.75-165.86-50.4l-2.91,3.59,59.87,57.99c32.45,31.43,76.44,49.1,122.31,49.1h275.2c45.87,0,89.86-17.67,122.31-49.1l59.27-57.41-3.06-3.77c-46.93,31.37-103.77,50-165.37,50Z"/>
        <path class="cls-1" d="M381.72,912.3h237.64c39.64,0,77.57-15.38,105.64-42.9l41.91-40.9-4.03-4.96c-38.26,23.2-83.32,36.94-131.86,36.94h-261.14c-48.65,0-94.02-13.85-132.44-37.33l-3.87,4.76,42.51,41.5c28.07,27.42,66,42.9,105.64,42.9Z"/>
        <path class="cls-1" d="M400.5,833.06h200.09c33.41,0,65.29-13.09,88.97-36.69l28.41-28.11-4.36-5.36c-30.4,16.86-65.42,26.79-102.84,26.79h-220.53c-37.62,0-72.94-10.05-103.5-27.19l-4.2,5.17,29,28.71c23.68,23.41,55.56,36.69,88.97,36.69Z"/>
        <path class="cls-1" d="M419.28,761.9h162.53c27.18,0,53-10.81,72.3-30.49l18.55-18.92-3.75-4.61c-23.63,12.02-50.24,19.09-78.41,19.09h-179.92c-28.45,0-55.36-7.21-79.11-19.56l-3.63,4.47,19.15,19.53c19.3,19.4,45.12,30.49,72.3,30.49Z"/>
      </g>
      <g>
        <path class="cls-1" d="M939.73,348.72v301.75c0,61.62-18.75,118.76-50.4,165.86l3.59,2.91,57.99-59.87c31.43-32.45,49.1-76.44,49.1-122.31v-275.2c0-45.87-17.67-89.86-49.1-122.31l-57.41-59.27-3.77,3.06c31.37,46.93,50,103.77,50,165.37Z"/>
        <path class="cls-1" d="M912.3,618.28v-237.64c0-39.64-15.38-77.57-42.9-105.64l-40.9-41.91-4.96,4.03c23.2,38.26,36.94,83.32,36.94,131.86v261.14c0,48.65-13.85,94.02-37.33,132.44l4.76,3.87,41.5-42.51c27.42-28.07,42.9-66,42.9-105.64Z"/>
        <path class="cls-1" d="M833.06,599.5v-200.09c0-33.41-13.09-65.29-36.69-88.97l-28.11-28.41-5.36,4.36c16.86,30.4,26.79,65.42,26.79,102.84v220.53c0,37.62-10.05,72.94-27.19,103.5l5.17,4.2,28.71-29c23.41-23.68,36.69-55.56,36.69-88.97Z"/>
        <path class="cls-1" d="M761.9,580.72v-162.53c0-27.18-10.81-53-30.49-72.3l-18.92-18.55-4.61,3.75c12.02,23.63,19.09,50.24,19.09,78.41v179.92c0,28.45-7.21,55.36-19.56,79.11l4.47,3.63,19.53-19.15c19.4-19.3,30.49-45.12,30.49-72.3Z"/>
      </g>
    </g>
  </g>
</svg>