<svg xmlns="http://www.w3.org/2000/svg" xmlns:xlink="http://www.w3.org/1999/xlink" width="195" zoomAndPan="magnify" viewBox="0 0 146.25 34.499999" height="46" preserveAspectRatio="xMidYMid meet" version="1.0"><defs><g/><clipPath id="bdb8cb89c6"><path d="M 65 17 L 73.773438 17 L 73.773438 32.445312 L 65 32.445312 Z M 65 17 " clip-rule="nonzero"/></clipPath><clipPath id="45fef840c6"><path d="M 50 16.984375 L 64 16.984375 L 64 32.445312 L 50 32.445312 Z M 50 16.984375 " clip-rule="nonzero"/></clipPath><clipPath id="cf7a25b7e1"><path d="M 34 16.984375 L 49 16.984375 L 49 32.445312 L 34 32.445312 Z M 34 16.984375 " clip-rule="nonzero"/></clipPath><clipPath id="521e0867e7"><path d="M 17 16.984375 L 33 16.984375 L 33 32.445312 L 17 32.445312 Z M 17 16.984375 " clip-rule="nonzero"/></clipPath><clipPath id="966e39c437"><path d="M 2.867188 16.984375 L 17 16.984375 L 17 32.445312 L 2.867188 32.445312 Z M 2.867188 16.984375 " clip-rule="nonzero"/></clipPath><clipPath id="2e2c55bf14"><path d="M 93 23 L 144 23 L 144 33.988281 L 93 33.988281 Z M 93 23 " clip-rule="nonzero"/></clipPath><clipPath id="8f5b9cd668"><path d="M 84 25 L 91 25 L 91 33.988281 L 84 33.988281 Z M 84 25 " clip-rule="nonzero"/></clipPath></defs><g clip-path="url(#bdb8cb89c6)"><path fill="#091717" d="M 65.972656 17.40625 L 68.480469 17.40625 L 68.480469 19.375 C 68.480469 19.507812 68.546875 19.570312 68.675781 19.570312 C 68.804688 19.570312 68.898438 19.496094 68.953125 19.347656 C 69.269531 18.632812 69.707031 18.128906 70.265625 17.828125 C 70.820312 17.511719 71.59375 17.351562 72.578125 17.351562 L 73.773438 17.351562 L 73.773438 19.878906 L 72.1875 19.878906 C 70.941406 19.878906 70.011719 20.179688 69.402344 20.78125 C 68.789062 21.378906 68.480469 22.363281 68.480469 23.730469 L 68.480469 32.023438 L 65.972656 32.023438 Z M 65.972656 17.40625 " fill-opacity="1" fill-rule="nonzero"/></g><g clip-path="url(#45fef840c6)"><path fill="#091717" d="M 50.234375 27.664062 C 50.234375 26.371094 50.667969 25.359375 51.542969 24.628906 C 52.433594 23.878906 53.761719 23.488281 55.527344 23.449219 L 60.820312 23.335938 L 60.820312 22.746094 C 60.820312 21.640625 60.503906 20.78125 59.871094 20.160156 C 59.242188 19.542969 58.257812 19.234375 56.917969 19.234375 C 55.730469 19.234375 54.832031 19.496094 54.21875 20.019531 C 53.605469 20.546875 53.296875 21.21875 53.296875 22.042969 L 50.652344 22.042969 C 50.707031 21.089844 50.984375 20.226562 51.488281 19.460938 C 51.988281 18.691406 52.703125 18.089844 53.632812 17.660156 C 54.5625 17.210938 55.65625 16.984375 56.917969 16.984375 C 59.035156 16.984375 60.632812 17.5 61.710938 18.53125 C 62.789062 19.5625 63.328125 21.015625 63.328125 22.886719 L 63.328125 32.023438 L 60.820312 32.023438 L 60.820312 30.503906 C 60.820312 30.390625 60.765625 30.335938 60.652344 30.335938 C 60.558594 30.335938 60.46875 30.390625 60.375 30.503906 C 59.371094 31.796875 57.894531 32.445312 55.945312 32.445312 C 54.160156 32.445312 52.757812 32.003906 51.738281 31.121094 C 50.734375 30.242188 50.234375 29.089844 50.234375 27.664062 Z M 52.742188 27.664062 C 52.742188 28.453125 53.046875 29.070312 53.660156 29.519531 C 54.273438 29.96875 55.128906 30.195312 56.222656 30.195312 C 57.652344 30.195312 58.777344 29.800781 59.59375 29.015625 C 60.410156 28.226562 60.820312 27.074219 60.820312 25.558594 L 60.820312 25.445312 L 55.527344 25.558594 C 54.578125 25.578125 53.875 25.773438 53.410156 26.148438 C 52.964844 26.503906 52.742188 27.011719 52.742188 27.664062 Z M 52.742188 27.664062 " fill-opacity="1" fill-rule="nonzero"/></g><g clip-path="url(#cf7a25b7e1)"><path fill="#091717" d="M 34.765625 17.40625 L 37.269531 17.40625 L 37.269531 19.007812 C 37.269531 19.140625 37.335938 19.207031 37.464844 19.207031 C 37.523438 19.207031 37.566406 19.1875 37.605469 19.148438 C 37.660156 19.09375 37.714844 19.035156 37.773438 18.980469 C 38.757812 17.652344 40.261719 16.984375 42.285156 16.984375 C 44.105469 16.984375 45.535156 17.5 46.574219 18.53125 C 47.617188 19.5625 48.136719 21.015625 48.136719 22.886719 L 48.136719 32.023438 L 45.628906 32.023438 L 45.628906 23.308594 C 45.628906 21.980469 45.292969 20.96875 44.625 20.273438 C 43.957031 19.578125 42.992188 19.234375 41.726562 19.234375 C 40.296875 19.234375 39.191406 19.671875 38.414062 20.554688 C 37.652344 21.417969 37.269531 22.707031 37.269531 24.433594 L 37.269531 32.019531 L 34.761719 32.019531 L 34.761719 17.40625 Z M 34.765625 17.40625 " fill-opacity="1" fill-rule="nonzero"/></g><g clip-path="url(#521e0867e7)"><path fill="#091717" d="M 25.289062 16.984375 C 26.699219 16.984375 27.972656 17.285156 29.105469 17.886719 C 30.253906 18.484375 31.15625 19.367188 31.804688 20.527344 C 32.476562 21.6875 32.808594 23.085938 32.808594 24.714844 C 32.808594 26.34375 32.476562 27.742188 31.804688 28.902344 C 31.15625 30.0625 30.253906 30.945312 29.105469 31.542969 C 27.972656 32.144531 26.699219 32.445312 25.289062 32.445312 C 23.875 32.445312 22.59375 32.144531 21.441406 31.542969 C 20.308594 30.945312 19.410156 30.0625 18.742188 28.902344 C 18.089844 27.742188 17.765625 26.34375 17.765625 24.714844 C 17.765625 23.085938 18.089844 21.6875 18.742188 20.527344 C 19.410156 19.367188 20.3125 18.484375 21.441406 17.886719 C 22.59375 17.285156 23.875 16.984375 25.289062 16.984375 Z M 25.289062 19.234375 C 23.78125 19.234375 22.566406 19.722656 21.636719 20.695312 C 20.726562 21.652344 20.273438 22.992188 20.273438 24.714844 C 20.273438 26.4375 20.726562 27.789062 21.636719 28.761719 C 22.566406 29.71875 23.78125 30.195312 25.289062 30.195312 C 26.792969 30.195312 28 29.71875 28.910156 28.761719 C 29.839844 27.785156 30.300781 26.4375 30.300781 24.714844 C 30.300781 22.992188 29.839844 21.652344 28.910156 20.695312 C 28 19.722656 26.792969 19.234375 25.289062 19.234375 Z M 25.289062 19.234375 " fill-opacity="1" fill-rule="nonzero"/></g><g clip-path="url(#966e39c437)"><path fill="#091717" d="M 10.113281 16.984375 C 11.320312 16.984375 12.398438 17.191406 13.34375 17.605469 C 14.308594 18.015625 15.070312 18.605469 15.628906 19.375 C 16.1875 20.144531 16.484375 21.03125 16.519531 22.042969 L 13.875 22.042969 C 13.722656 20.171875 12.425781 19.234375 9.972656 19.234375 C 8.914062 19.234375 8.085938 19.441406 7.492188 19.851562 C 6.917969 20.265625 6.628906 20.789062 6.628906 21.425781 C 6.628906 21.96875 6.824219 22.363281 7.214844 22.605469 C 7.621094 22.851562 8.3125 23.074219 9.277344 23.28125 L 11.921875 23.84375 C 13.355469 24.144531 14.449219 24.574219 15.210938 25.136719 C 15.992188 25.699219 16.382812 26.589844 16.382812 27.808594 C 16.382812 28.707031 16.121094 29.511719 15.601562 30.222656 C 15.082031 30.917969 14.347656 31.460938 13.398438 31.855469 C 12.472656 32.246094 11.394531 32.445312 10.167969 32.445312 C 7.957031 32.445312 6.25 31.949219 5.042969 30.953125 C 3.835938 29.941406 3.109375 28.613281 2.867188 26.964844 L 5.515625 26.964844 C 5.867188 29.117188 7.417969 30.195312 10.167969 30.195312 C 11.375 30.195312 12.292969 29.980469 12.925781 29.550781 C 13.558594 29.097656 13.875 28.566406 13.875 27.945312 C 13.875 27.535156 13.761719 27.226562 13.539062 27.019531 C 13.335938 26.792969 13.046875 26.625 12.675781 26.515625 C 12.304688 26.402344 11.683594 26.25 10.808594 26.0625 L 8.160156 25.503906 C 6.878906 25.238281 5.886719 24.800781 5.179688 24.179688 C 4.476562 23.5625 4.121094 22.664062 4.121094 21.484375 C 4.121094 20.097656 4.679688 19 5.792969 18.195312 C 6.910156 17.390625 8.347656 16.984375 10.113281 16.984375 Z M 10.113281 16.984375 " fill-opacity="1" fill-rule="nonzero"/></g><g clip-path="url(#2e2c55bf14)"><path fill="#091717" d="M 109.71875 25.644531 L 110.21875 25.644531 L 110.21875 26.648438 L 109.570312 26.648438 C 109.058594 26.648438 108.675781 26.765625 108.425781 27.003906 C 108.175781 27.242188 108.046875 27.632812 108.046875 28.171875 L 108.046875 31.457031 L 107.019531 31.457031 L 107.019531 25.667969 L 108.046875 25.667969 L 108.046875 26.59375 C 108.046875 26.644531 108.074219 26.671875 108.128906 26.671875 C 108.15625 26.671875 108.179688 26.664062 108.195312 26.648438 C 108.214844 26.632812 108.226562 26.605469 108.242188 26.558594 C 108.441406 25.953125 108.933594 25.648438 109.71875 25.648438 Z M 116.5625 26.886719 C 116.832031 27.351562 116.96875 27.90625 116.96875 28.5625 C 116.96875 29.214844 116.835938 29.773438 116.5625 30.234375 C 116.292969 30.699219 115.941406 31.046875 115.507812 31.277344 C 115.078125 31.507812 114.617188 31.621094 114.121094 31.621094 C 113.144531 31.621094 112.457031 31.242188 112.058594 30.484375 C 112.03125 30.425781 111.992188 30.398438 111.945312 30.398438 C 111.902344 30.398438 111.875 30.417969 111.875 30.464844 L 111.875 33.570312 L 110.847656 33.570312 L 110.847656 25.667969 L 111.875 25.667969 L 111.875 26.660156 C 111.875 26.703125 111.898438 26.726562 111.945312 26.726562 C 111.992188 26.726562 112.03125 26.699219 112.058594 26.636719 C 112.457031 25.882812 113.144531 25.503906 114.121094 25.503906 C 114.617188 25.503906 115.078125 25.617188 115.507812 25.847656 C 115.941406 26.078125 116.292969 26.425781 116.5625 26.890625 Z M 115.9375 28.5625 C 115.9375 27.878906 115.75 27.347656 115.375 26.964844 C 114.996094 26.582031 114.5 26.390625 113.878906 26.390625 C 113.261719 26.390625 112.765625 26.582031 112.386719 26.964844 C 112.007812 27.34375 111.871094 27.878906 111.871094 28.5625 C 111.871094 29.242188 112.007812 29.773438 112.386719 30.15625 C 112.765625 30.539062 113.261719 30.730469 113.878906 30.730469 C 114.5 30.730469 114.996094 30.539062 115.375 30.15625 C 115.75 29.777344 115.9375 29.242188 115.9375 28.5625 Z M 99.226562 26.894531 C 99.5 27.359375 99.632812 27.917969 99.632812 28.570312 C 99.632812 29.222656 99.5 29.78125 99.226562 30.246094 C 98.957031 30.710938 98.605469 31.054688 98.175781 31.285156 C 97.742188 31.515625 97.28125 31.632812 96.785156 31.632812 C 95.808594 31.632812 95.121094 31.253906 94.726562 30.496094 C 94.695312 30.4375 94.65625 30.40625 94.609375 30.40625 C 94.566406 30.40625 94.539062 30.429688 94.539062 30.472656 L 94.539062 33.578125 L 93.511719 33.578125 L 93.511719 25.679688 L 94.539062 25.679688 L 94.539062 26.667969 C 94.539062 26.714844 94.5625 26.738281 94.609375 26.738281 C 94.65625 26.738281 94.695312 26.707031 94.726562 26.648438 C 95.121094 25.890625 95.808594 25.511719 96.785156 25.511719 C 97.28125 25.511719 97.742188 25.628906 98.175781 25.855469 C 98.605469 26.085938 98.957031 26.433594 99.226562 26.898438 Z M 98.605469 28.570312 C 98.605469 27.886719 98.417969 27.355469 98.039062 26.972656 C 97.660156 26.589844 97.164062 26.398438 96.546875 26.398438 C 95.925781 26.398438 95.429688 26.589844 95.050781 26.972656 C 94.671875 27.355469 94.535156 27.886719 94.535156 28.570312 C 94.535156 29.25 94.671875 29.78125 95.050781 30.164062 C 95.429688 30.546875 95.925781 30.738281 96.546875 30.738281 C 97.164062 30.738281 97.660156 30.546875 98.039062 30.164062 C 98.417969 29.785156 98.605469 29.25 98.605469 28.570312 Z M 105.195312 29.617188 L 106.285156 29.617188 C 106.140625 30.160156 105.84375 30.628906 105.398438 31.023438 C 104.949219 31.421875 104.3125 31.621094 103.480469 31.621094 C 102.855469 31.621094 102.304688 31.496094 101.828125 31.246094 C 101.351562 31 100.984375 30.644531 100.722656 30.183594 C 100.464844 29.726562 100.335938 29.183594 100.335938 28.558594 C 100.335938 27.9375 100.460938 27.394531 100.710938 26.933594 C 100.960938 26.472656 101.316406 26.121094 101.769531 25.871094 C 102.222656 25.621094 102.753906 25.496094 103.367188 25.496094 C 103.976562 25.496094 104.480469 25.621094 104.90625 25.863281 C 105.328125 26.109375 105.644531 26.433594 105.855469 26.839844 C 106.066406 27.242188 106.167969 27.6875 106.167969 28.167969 L 106.167969 28.835938 L 101.421875 28.835938 C 101.460938 29.414062 101.660156 29.875 102.023438 30.214844 C 102.382812 30.554688 102.871094 30.726562 103.480469 30.726562 C 103.976562 30.726562 104.355469 30.628906 104.621094 30.433594 C 104.882812 30.234375 105.074219 29.964844 105.199219 29.613281 Z M 101.398438 28.003906 L 104.992188 28.003906 C 104.992188 27.5 104.859375 27.105469 104.589844 26.820312 C 104.324219 26.535156 103.902344 26.390625 103.332031 26.390625 C 102.796875 26.390625 102.359375 26.527344 102.023438 26.808594 C 101.683594 27.085938 101.476562 27.484375 101.398438 28.003906 Z M 117.800781 31.453125 L 118.828125 31.453125 L 118.828125 23.441406 L 117.800781 23.441406 Z M 132.273438 25.035156 L 133.476562 25.035156 L 133.476562 23.785156 L 132.273438 23.785156 Z M 136.714844 30.59375 C 136.527344 30.609375 136.417969 30.621094 136.378906 30.621094 C 136.324219 30.621094 136.28125 30.605469 136.253906 30.574219 C 136.222656 30.546875 136.203125 30.503906 136.203125 30.453125 C 136.203125 30.414062 136.214844 30.304688 136.234375 30.125 C 136.253906 29.941406 136.261719 29.660156 136.261719 29.285156 L 136.261719 26.515625 L 137.730469 26.515625 L 137.441406 25.667969 L 136.261719 25.667969 L 136.261719 24.109375 L 135.234375 24.109375 L 135.234375 25.667969 L 134.113281 25.667969 L 134.113281 26.515625 L 135.234375 26.515625 L 135.234375 29.5625 C 135.234375 30.199219 135.394531 30.671875 135.714844 30.984375 C 136.035156 31.296875 136.523438 31.453125 137.179688 31.453125 L 137.980469 31.453125 L 137.980469 30.5625 L 137.582031 30.5625 C 137.191406 30.5625 136.902344 30.574219 136.71875 30.59375 Z M 142.9375 25.667969 L 141.230469 30.523438 C 141.210938 30.582031 141.171875 30.660156 141.058594 30.660156 C 140.941406 30.660156 140.902344 30.582031 140.878906 30.523438 L 139.175781 25.667969 L 138.125 25.667969 L 140.101562 31.453125 L 140.796875 31.453125 C 140.84375 31.453125 140.878906 31.457031 140.902344 31.464844 C 140.925781 31.472656 140.945312 31.488281 140.957031 31.519531 C 140.988281 31.5625 140.984375 31.632812 140.945312 31.71875 L 140.625 32.566406 C 140.578125 32.675781 140.492188 32.734375 140.363281 32.734375 C 140.316406 32.734375 140.210938 32.722656 140.042969 32.703125 C 139.875 32.6875 139.660156 32.675781 139.390625 32.675781 L 138.554688 32.675781 L 138.554688 33.566406 L 139.652344 33.566406 C 140.296875 33.566406 140.679688 33.460938 141.011719 33.25 C 141.34375 33.039062 141.601562 32.664062 141.785156 32.128906 L 143.917969 25.886719 L 143.917969 25.664062 L 142.9375 25.664062 Z M 128.789062 27.828125 L 127.175781 25.667969 L 126.042969 25.667969 L 126.042969 25.890625 L 127.976562 28.394531 L 125.621094 31.230469 L 125.621094 31.453125 L 126.773438 31.453125 L 128.652344 29.128906 L 130.402344 31.453125 L 131.511719 31.453125 L 131.511719 31.230469 L 129.460938 28.5625 L 131.683594 25.902344 L 131.683594 25.667969 L 130.527344 25.667969 Z M 132.382812 31.453125 L 133.414062 31.453125 L 133.414062 25.667969 L 132.382812 25.667969 Z M 125.605469 29.617188 C 125.460938 30.160156 125.164062 30.628906 124.71875 31.023438 C 124.273438 31.421875 123.636719 31.621094 122.804688 31.621094 C 122.179688 31.621094 121.628906 31.496094 121.152344 31.246094 C 120.671875 31 120.308594 30.644531 120.046875 30.183594 C 119.785156 29.726562 119.65625 29.183594 119.65625 28.558594 C 119.65625 27.9375 119.785156 27.394531 120.035156 26.933594 C 120.289062 26.472656 120.640625 26.121094 121.09375 25.871094 C 121.546875 25.621094 122.078125 25.496094 122.6875 25.496094 C 123.300781 25.496094 123.804688 25.621094 124.226562 25.863281 C 124.652344 26.109375 124.96875 26.433594 125.175781 26.839844 C 125.386719 27.242188 125.492188 27.6875 125.492188 28.167969 L 125.492188 28.835938 L 120.746094 28.835938 C 120.78125 29.414062 120.980469 29.875 121.34375 30.214844 C 121.707031 30.554688 122.195312 30.726562 122.804688 30.726562 C 123.300781 30.726562 123.679688 30.628906 123.941406 30.433594 C 124.207031 30.234375 124.398438 29.964844 124.519531 29.613281 L 125.605469 29.613281 Z M 120.746094 28.003906 L 124.339844 28.003906 C 124.339844 27.5 124.207031 27.105469 123.9375 26.820312 C 123.671875 26.535156 123.253906 26.390625 122.679688 26.390625 C 122.144531 26.390625 121.710938 26.527344 121.371094 26.808594 C 121.03125 27.085938 120.824219 27.484375 120.746094 28.003906 Z M 120.746094 28.003906 " fill-opacity="1" fill-rule="nonzero"/></g><path fill="#091717" d="M 79.109375 23.167969 L 80.121094 23.167969 L 80.121094 26.359375 L 80.238281 26.359375 C 80.367188 26.140625 80.582031 25.929688 80.882812 25.722656 C 81.183594 25.519531 81.613281 25.414062 82.167969 25.414062 C 82.671875 25.414062 83.128906 25.535156 83.535156 25.769531 C 83.941406 26.003906 84.261719 26.351562 84.496094 26.816406 C 84.734375 27.277344 84.851562 27.949219 84.851562 28.644531 C 84.851562 29.335938 84.734375 30 84.496094 30.460938 C 84.261719 30.925781 83.941406 31.277344 83.535156 31.507812 C 83.128906 31.742188 82.671875 31.859375 82.167969 31.859375 C 81.613281 31.859375 81.179688 31.753906 80.871094 31.546875 C 80.566406 31.339844 80.34375 31.113281 80.210938 30.871094 L 80.09375 30.871094 L 80.09375 31.722656 L 79.109375 31.722656 Z M 80.082031 28.644531 C 80.082031 29.390625 80.253906 30.046875 80.601562 30.445312 C 80.949219 30.84375 81.402344 31.042969 81.960938 31.042969 C 82.515625 31.042969 82.964844 30.84375 83.3125 30.445312 C 83.660156 30.046875 83.832031 29.390625 83.832031 28.644531 C 83.832031 27.898438 83.65625 27.226562 83.3125 26.828125 C 82.964844 26.429688 82.515625 26.230469 81.960938 26.230469 C 81.402344 26.230469 80.949219 26.429688 80.601562 26.828125 C 80.253906 27.226562 80.082031 27.894531 80.082031 28.644531 Z M 80.082031 28.644531 " fill-opacity="1" fill-rule="nonzero"/><g clip-path="url(#8f5b9cd668)"><path fill="#091717" d="M 84.746094 25.550781 L 85.734375 25.550781 L 87.566406 30.613281 L 87.679688 30.613281 L 89.515625 25.550781 L 90.503906 25.550781 L 90.503906 25.726562 L 87.777344 32.796875 C 87.65625 33.117188 87.515625 33.363281 87.359375 33.539062 C 87.203125 33.710938 87.011719 33.828125 86.789062 33.894531 C 86.5625 33.957031 86.289062 33.988281 85.960938 33.988281 L 85.40625 33.988281 L 85.40625 33.179688 L 85.855469 33.179688 C 86.148438 33.179688 86.355469 33.140625 86.480469 33.066406 C 86.605469 32.992188 86.71875 32.828125 86.820312 32.578125 L 87.101562 31.886719 L 84.75 25.726562 L 84.75 25.550781 Z M 84.746094 25.550781 " fill-opacity="1" fill-rule="nonzero"/></g><g fill="#000000" fill-opacity="1"><g transform="translate(4.762711, 10.374518)"><g><path d="M 4.1875 -3.796875 C 4.1875 -3.347656 4.03125 -2.972656 3.71875 -2.671875 C 3.414062 -2.378906 2.953125 -2.234375 2.328125 -2.234375 L 1.296875 -2.234375 L 1.296875 0 L 0.59375 0 L 0.59375 -5.375 L 2.328125 -5.375 C 2.929688 -5.375 3.390625 -5.222656 3.703125 -4.921875 C 4.023438 -4.628906 4.1875 -4.253906 4.1875 -3.796875 Z M 2.328125 -2.8125 C 2.710938 -2.8125 3 -2.894531 3.1875 -3.0625 C 3.375 -3.238281 3.46875 -3.484375 3.46875 -3.796875 C 3.46875 -4.460938 3.085938 -4.796875 2.328125 -4.796875 L 1.296875 -4.796875 L 1.296875 -2.8125 Z M 2.328125 -2.8125 "/></g></g></g><g fill="#000000" fill-opacity="1"><g transform="translate(9.219959, 10.374518)"><g><path d="M 2.4375 0.0625 C 2.039062 0.0625 1.679688 -0.0234375 1.359375 -0.203125 C 1.035156 -0.378906 0.78125 -0.632812 0.59375 -0.96875 C 0.414062 -1.300781 0.328125 -1.6875 0.328125 -2.125 C 0.328125 -2.550781 0.421875 -2.929688 0.609375 -3.265625 C 0.796875 -3.597656 1.050781 -3.851562 1.375 -4.03125 C 1.695312 -4.207031 2.0625 -4.296875 2.46875 -4.296875 C 2.863281 -4.296875 3.222656 -4.207031 3.546875 -4.03125 C 3.867188 -3.851562 4.125 -3.597656 4.3125 -3.265625 C 4.5 -2.929688 4.59375 -2.550781 4.59375 -2.125 C 4.59375 -1.6875 4.492188 -1.300781 4.296875 -0.96875 C 4.109375 -0.632812 3.847656 -0.378906 3.515625 -0.203125 C 3.191406 -0.0234375 2.832031 0.0625 2.4375 0.0625 Z M 2.4375 -0.546875 C 2.6875 -0.546875 2.921875 -0.601562 3.140625 -0.71875 C 3.359375 -0.84375 3.535156 -1.019531 3.671875 -1.25 C 3.804688 -1.488281 3.875 -1.78125 3.875 -2.125 C 3.875 -2.457031 3.804688 -2.738281 3.671875 -2.96875 C 3.546875 -3.207031 3.375 -3.382812 3.15625 -3.5 C 2.9375 -3.625 2.703125 -3.6875 2.453125 -3.6875 C 2.203125 -3.6875 1.96875 -3.625 1.75 -3.5 C 1.539062 -3.382812 1.367188 -3.207031 1.234375 -2.96875 C 1.109375 -2.738281 1.046875 -2.457031 1.046875 -2.125 C 1.046875 -1.78125 1.109375 -1.488281 1.234375 -1.25 C 1.359375 -1.007812 1.523438 -0.832031 1.734375 -0.71875 C 1.953125 -0.601562 2.1875 -0.546875 2.4375 -0.546875 Z M 2.4375 -0.546875 "/></g></g></g><g fill="#000000" fill-opacity="1"><g transform="translate(14.146799, 10.374518)"><g><path d="M 6.21875 -4.21875 L 4.90625 0 L 4.171875 0 L 3.15625 -3.34375 L 2.140625 0 L 1.421875 0 L 0.09375 -4.21875 L 0.8125 -4.21875 L 1.78125 -0.671875 L 2.828125 -4.21875 L 3.546875 -4.21875 L 4.5625 -0.671875 L 5.515625 -4.21875 Z M 6.21875 -4.21875 "/></g></g></g><g fill="#000000" fill-opacity="1"><g transform="translate(20.459315, 10.374518)"><g><path d="M 4.4375 -2.265625 C 4.4375 -2.140625 4.429688 -2 4.421875 -1.84375 L 1.046875 -1.84375 C 1.078125 -1.425781 1.21875 -1.101562 1.46875 -0.875 C 1.726562 -0.644531 2.046875 -0.53125 2.421875 -0.53125 C 2.722656 -0.53125 2.972656 -0.597656 3.171875 -0.734375 C 3.378906 -0.878906 3.523438 -1.066406 3.609375 -1.296875 L 4.359375 -1.296875 C 4.242188 -0.890625 4.015625 -0.5625 3.671875 -0.3125 C 3.335938 -0.0625 2.921875 0.0625 2.421875 0.0625 C 2.015625 0.0625 1.65625 -0.0234375 1.34375 -0.203125 C 1.03125 -0.378906 0.78125 -0.632812 0.59375 -0.96875 C 0.414062 -1.300781 0.328125 -1.6875 0.328125 -2.125 C 0.328125 -2.550781 0.414062 -2.929688 0.59375 -3.265625 C 0.769531 -3.597656 1.015625 -3.851562 1.328125 -4.03125 C 1.640625 -4.207031 2.003906 -4.296875 2.421875 -4.296875 C 2.816406 -4.296875 3.164062 -4.207031 3.46875 -4.03125 C 3.78125 -3.851562 4.019531 -3.609375 4.1875 -3.296875 C 4.351562 -2.992188 4.4375 -2.648438 4.4375 -2.265625 Z M 3.71875 -2.421875 C 3.71875 -2.679688 3.65625 -2.90625 3.53125 -3.09375 C 3.414062 -3.289062 3.253906 -3.441406 3.046875 -3.546875 C 2.847656 -3.648438 2.628906 -3.703125 2.390625 -3.703125 C 2.035156 -3.703125 1.734375 -3.585938 1.484375 -3.359375 C 1.234375 -3.128906 1.09375 -2.816406 1.0625 -2.421875 Z M 3.71875 -2.421875 "/></g></g></g><g fill="#000000" fill-opacity="1"><g transform="translate(25.232189, 10.374518)"><g><path d="M 1.296875 -3.53125 C 1.421875 -3.769531 1.597656 -3.957031 1.828125 -4.09375 C 2.054688 -4.226562 2.332031 -4.296875 2.65625 -4.296875 L 2.65625 -3.578125 L 2.46875 -3.578125 C 1.6875 -3.578125 1.296875 -3.148438 1.296875 -2.296875 L 1.296875 0 L 0.59375 0 L 0.59375 -4.21875 L 1.296875 -4.21875 Z M 1.296875 -3.53125 "/></g></g></g><g fill="#000000" fill-opacity="1"><g transform="translate(28.103611, 10.374518)"><g><path d="M 4.4375 -2.265625 C 4.4375 -2.140625 4.429688 -2 4.421875 -1.84375 L 1.046875 -1.84375 C 1.078125 -1.425781 1.21875 -1.101562 1.46875 -0.875 C 1.726562 -0.644531 2.046875 -0.53125 2.421875 -0.53125 C 2.722656 -0.53125 2.972656 -0.597656 3.171875 -0.734375 C 3.378906 -0.878906 3.523438 -1.066406 3.609375 -1.296875 L 4.359375 -1.296875 C 4.242188 -0.890625 4.015625 -0.5625 3.671875 -0.3125 C 3.335938 -0.0625 2.921875 0.0625 2.421875 0.0625 C 2.015625 0.0625 1.65625 -0.0234375 1.34375 -0.203125 C 1.03125 -0.378906 0.78125 -0.632812 0.59375 -0.96875 C 0.414062 -1.300781 0.328125 -1.6875 0.328125 -2.125 C 0.328125 -2.550781 0.414062 -2.929688 0.59375 -3.265625 C 0.769531 -3.597656 1.015625 -3.851562 1.328125 -4.03125 C 1.640625 -4.207031 2.003906 -4.296875 2.421875 -4.296875 C 2.816406 -4.296875 3.164062 -4.207031 3.46875 -4.03125 C 3.78125 -3.851562 4.019531 -3.609375 4.1875 -3.296875 C 4.351562 -2.992188 4.4375 -2.648438 4.4375 -2.265625 Z M 3.71875 -2.421875 C 3.71875 -2.679688 3.65625 -2.90625 3.53125 -3.09375 C 3.414062 -3.289062 3.253906 -3.441406 3.046875 -3.546875 C 2.847656 -3.648438 2.628906 -3.703125 2.390625 -3.703125 C 2.035156 -3.703125 1.734375 -3.585938 1.484375 -3.359375 C 1.234375 -3.128906 1.09375 -2.816406 1.0625 -2.421875 Z M 3.71875 -2.421875 "/></g></g></g><g fill="#000000" fill-opacity="1"><g transform="translate(32.876485, 10.374518)"><g><path d="M 0.328125 -2.125 C 0.328125 -2.550781 0.414062 -2.925781 0.59375 -3.25 C 0.769531 -3.582031 1.007812 -3.835938 1.3125 -4.015625 C 1.613281 -4.203125 1.957031 -4.296875 2.34375 -4.296875 C 2.664062 -4.296875 2.96875 -4.21875 3.25 -4.0625 C 3.539062 -3.914062 3.757812 -3.71875 3.90625 -3.46875 L 3.90625 -5.703125 L 4.609375 -5.703125 L 4.609375 0 L 3.90625 0 L 3.90625 -0.796875 C 3.769531 -0.546875 3.5625 -0.335938 3.28125 -0.171875 C 3.007812 -0.015625 2.691406 0.0625 2.328125 0.0625 C 1.953125 0.0625 1.613281 -0.0234375 1.3125 -0.203125 C 1.007812 -0.390625 0.769531 -0.648438 0.59375 -0.984375 C 0.414062 -1.316406 0.328125 -1.695312 0.328125 -2.125 Z M 3.90625 -2.125 C 3.90625 -2.4375 3.835938 -2.707031 3.703125 -2.9375 C 3.578125 -3.175781 3.40625 -3.359375 3.1875 -3.484375 C 2.96875 -3.617188 2.726562 -3.6875 2.46875 -3.6875 C 2.207031 -3.6875 1.96875 -3.625 1.75 -3.5 C 1.539062 -3.375 1.367188 -3.191406 1.234375 -2.953125 C 1.109375 -2.722656 1.046875 -2.445312 1.046875 -2.125 C 1.046875 -1.800781 1.109375 -1.519531 1.234375 -1.28125 C 1.367188 -1.039062 1.539062 -0.859375 1.75 -0.734375 C 1.96875 -0.609375 2.207031 -0.546875 2.46875 -0.546875 C 2.726562 -0.546875 2.96875 -0.609375 3.1875 -0.734375 C 3.40625 -0.859375 3.578125 -1.039062 3.703125 -1.28125 C 3.835938 -1.519531 3.90625 -1.800781 3.90625 -2.125 Z M 3.90625 -2.125 "/></g></g></g><g fill="#000000" fill-opacity="1"><g transform="translate(38.080462, 10.374518)"><g/></g></g><g fill="#000000" fill-opacity="1"><g transform="translate(40.13588, 10.374518)"><g><path d="M 3.28125 -2.765625 C 3.476562 -2.734375 3.65625 -2.648438 3.8125 -2.515625 C 3.976562 -2.390625 4.109375 -2.234375 4.203125 -2.046875 C 4.296875 -1.859375 4.34375 -1.65625 4.34375 -1.4375 C 4.34375 -1.164062 4.269531 -0.921875 4.125 -0.703125 C 3.988281 -0.484375 3.789062 -0.3125 3.53125 -0.1875 C 3.269531 -0.0625 2.957031 0 2.59375 0 L 0.59375 0 L 0.59375 -5.375 L 2.515625 -5.375 C 2.878906 -5.375 3.191406 -5.3125 3.453125 -5.1875 C 3.710938 -5.0625 3.90625 -4.894531 4.03125 -4.6875 C 4.15625 -4.488281 4.21875 -4.257812 4.21875 -4 C 4.21875 -3.6875 4.128906 -3.425781 3.953125 -3.21875 C 3.785156 -3.007812 3.5625 -2.859375 3.28125 -2.765625 Z M 1.296875 -3.046875 L 2.46875 -3.046875 C 2.800781 -3.046875 3.054688 -3.125 3.234375 -3.28125 C 3.410156 -3.4375 3.5 -3.648438 3.5 -3.921875 C 3.5 -4.191406 3.410156 -4.40625 3.234375 -4.5625 C 3.054688 -4.71875 2.796875 -4.796875 2.453125 -4.796875 L 1.296875 -4.796875 Z M 2.53125 -0.578125 C 2.882812 -0.578125 3.15625 -0.660156 3.34375 -0.828125 C 3.539062 -0.992188 3.640625 -1.222656 3.640625 -1.515625 C 3.640625 -1.804688 3.535156 -2.035156 3.328125 -2.203125 C 3.128906 -2.378906 2.859375 -2.46875 2.515625 -2.46875 L 1.296875 -2.46875 L 1.296875 -0.578125 Z M 2.53125 -0.578125 "/></g></g></g><g fill="#000000" fill-opacity="1"><g transform="translate(44.854867, 10.374518)"><g><path d="M 4.234375 -4.21875 L 1.6875 1.984375 L 0.96875 1.984375 L 1.796875 -0.046875 L 0.09375 -4.21875 L 0.875 -4.21875 L 2.203125 -0.796875 L 3.5 -4.21875 Z M 4.234375 -4.21875 "/></g></g></g></svg>