<svg width="185" height="22" viewBox="0 0 185 22" fill="none" xmlns="http://www.w3.org/2000/svg">
<g clip-path="url(#clip0_437_1002)">
<path d="M82.7686 0.545961H86.058V3.0912C86.058 3.261 86.1426 3.34544 86.3128 3.34544C86.483 3.34544 86.6048 3.24894 86.6783 3.05408C87.0921 2.13267 87.6641 1.4785 88.396 1.09064C89.127 0.67865 90.1388 0.472656 91.4296 0.472656H93.0013V3.74537H90.9181C89.286 3.74537 88.0677 4.13323 87.2642 4.90896C86.4597 5.68468 86.058 6.95776 86.058 8.72727V19.4547H82.7686V0.545961Z" fill="#091717"/>
<path d="M62.123 13.8183C62.123 12.1453 62.6959 10.836 63.8408 9.89051C65.0098 8.92085 66.7517 8.41143 69.0664 8.36318L76.0098 8.2175V7.45384C76.0098 6.02394 75.596 4.9086 74.7673 4.10875C73.9387 3.3089 72.6479 2.90897 70.8939 2.90897C69.3352 2.90897 68.1532 3.24858 67.3496 3.92688C66.5461 4.60611 66.1434 5.47833 66.1434 6.54542H62.6717C62.7452 5.30946 63.1107 4.19412 63.7682 3.20033C64.4257 2.20655 65.3641 1.43082 66.5815 0.873156C67.7998 0.291361 69.2366 0 70.8939 0C73.6709 0 75.7661 0.667162 77.1788 1.99963C78.5915 3.33302 79.2983 5.21203 79.2983 7.63571V19.4544H76.0098V17.491C76.0098 17.3453 75.9363 17.2729 75.7903 17.2729C75.6685 17.2729 75.5467 17.3453 75.4248 17.491C74.1089 19.164 72.1726 20 69.6142 20C67.2752 20 65.4366 19.4303 64.0965 18.2908C62.7806 17.1513 62.123 15.6602 62.123 13.8183ZM65.4125 13.8183C65.4125 14.8362 65.8142 15.6361 66.6187 16.2179C67.4222 16.7997 68.5428 17.091 69.9806 17.091C71.8564 17.091 73.3305 16.5816 74.4018 15.5637C75.4741 14.5458 76.0098 13.0547 76.0098 11.0912V10.9455L69.0664 11.0912C67.8239 11.1153 66.8986 11.3696 66.2894 11.8549C65.7045 12.3151 65.4125 12.9702 65.4125 13.8183Z" fill="#091717"/>
<path d="M41.8339 0.544679H45.1224V2.61761C45.1224 2.78742 45.208 2.87186 45.3782 2.87186C45.4516 2.87186 45.5121 2.84773 45.5604 2.79948C45.6339 2.7271 45.7065 2.6538 45.7799 2.58142C47.0708 0.860165 49.0442 0 51.6994 0C54.0867 0 55.9625 0.667162 57.3268 1.99963C58.6911 3.33302 59.3728 5.21203 59.3728 7.63571V19.4544H56.0843V8.18131C56.0843 6.46005 55.6454 5.15078 54.7684 4.2535C53.8914 3.35622 52.6247 2.90805 50.9684 2.90805C49.0926 2.90805 47.6427 3.47778 46.6197 4.61724C45.6209 5.73258 45.1215 7.40466 45.1215 9.63533V19.4535H41.833V0.544679H41.8339Z" fill="#091717"/>
<path d="M29.4045 0C31.2561 0 32.9246 0.387863 34.4107 1.16359C35.921 1.93932 37.103 3.07878 37.9549 4.58198C38.8319 6.08518 39.2709 7.89088 39.2709 10C39.2709 12.1091 38.8319 13.9148 37.9549 15.418C37.1021 16.9212 35.921 18.0607 34.4107 18.8364C32.9246 19.6121 31.2561 20 29.4045 20C27.5529 20 25.8724 19.6121 24.362 18.8364C22.8759 18.0607 21.6948 16.9212 20.8178 15.418C19.965 13.9148 19.5391 12.1091 19.5391 10C19.5391 7.89088 19.965 6.08518 20.8178 4.58198C21.6948 3.07878 22.8768 1.93932 24.362 1.16359C25.8724 0.387863 27.5538 0 29.4045 0ZM29.4045 2.90897C27.431 2.90897 25.8352 3.53902 24.6178 4.80004C23.4237 6.036 22.8275 7.76932 22.8275 10C22.8275 12.2307 23.4246 13.9761 24.6178 15.2362C25.8361 16.4721 27.431 17.091 29.4045 17.091C31.378 17.091 32.9618 16.473 34.1549 15.2362C35.3732 13.9751 35.9824 12.2297 35.9824 10C35.9824 7.77025 35.3732 6.036 34.1549 4.80004C32.9608 3.53902 31.378 2.90897 29.4045 2.90897Z" fill="#091717"/>
<path d="M9.50088 0C11.0847 0 12.4973 0.266308 13.7398 0.799852C15.0065 1.3334 16.0053 2.09706 16.7363 3.09084C17.4673 4.08462 17.8569 5.23615 17.9053 6.54542H14.4336C14.2383 4.12081 12.5336 2.90897 9.31767 2.90897C7.92918 2.90897 6.8448 3.17528 6.06546 3.70882C5.3103 4.24237 4.93272 4.92066 4.93272 5.74557C4.93272 6.44892 5.18847 6.95741 5.69997 7.2729C6.23565 7.58838 7.13775 7.87882 8.40441 8.14605L11.8761 8.87353C13.7519 9.26139 15.1897 9.81906 16.1885 10.5465C17.2115 11.274 17.723 12.4255 17.723 14.0011C17.723 15.1647 17.3817 16.2067 16.7 17.1281C16.0183 18.0254 15.0558 18.7278 13.8133 19.2373C12.595 19.7467 11.1823 20.0009 9.57435 20.0009C6.67554 20.0009 4.43424 19.3588 2.85045 18.0737C1.26666 16.7644 0.31713 15.0431 0 12.909H3.47169C3.93483 15.6964 5.96874 17.091 9.57435 17.091C11.1581 17.091 12.3634 16.8127 13.192 16.255C14.0207 15.6732 14.4345 14.9819 14.4345 14.1821C14.4345 13.6485 14.2885 13.2486 13.9956 12.9823C13.7277 12.6909 13.3501 12.4729 12.8628 12.3281C12.3755 12.1824 11.5599 11.9885 10.4141 11.7463L6.94245 11.0188C5.26194 10.6792 3.95808 10.1095 3.03273 9.30964C2.10738 8.50979 1.64424 7.3462 1.64424 5.81887C1.64424 4.02524 2.37522 2.60648 3.83718 1.56444C5.29821 0.521481 7.18704 0 9.50088 0Z" fill="#091717"/>
</g>
<path d="M140.143 11.2054H140.803V12.5014H139.949C139.28 12.5014 138.778 12.6551 138.449 12.9624C138.12 13.2697 137.954 13.7731 137.954 14.4747V18.7225H136.605V11.2357H137.954V12.4306C137.954 12.4974 137.99 12.5317 138.058 12.5317C138.098 12.5317 138.128 12.5216 138.149 12.5034C138.171 12.4832 138.19 12.4468 138.211 12.3882C138.47 11.6017 139.116 11.2074 140.147 11.2074L140.143 11.2054ZM149.123 12.8087C149.477 13.4092 149.656 14.131 149.656 14.9761C149.656 15.8212 149.48 16.543 149.123 17.1435C148.768 17.744 148.307 18.1928 147.741 18.49C147.176 18.7872 146.568 18.9369 145.918 18.9369C144.637 18.9369 143.738 18.4476 143.217 17.467C143.177 17.3902 143.126 17.3518 143.066 17.3518C143.007 17.3518 142.975 17.3801 142.975 17.4387V21.456H141.626V11.2357H142.975V12.5176C142.975 12.5742 143.005 12.6045 143.066 12.6045C143.128 12.6045 143.177 12.5661 143.217 12.4893C143.738 11.5107 144.637 11.0194 145.918 11.0194C146.568 11.0194 147.176 11.169 147.741 11.4662C148.307 11.7634 148.766 12.2123 149.123 12.8128V12.8087ZM148.304 14.9761C148.304 14.0926 148.058 13.4052 147.563 12.9098C147.068 12.4165 146.415 12.1698 145.604 12.1698C144.792 12.1698 144.14 12.4165 143.644 12.9098C143.149 13.4031 142.967 14.0926 142.967 14.9761C142.967 15.8597 143.149 16.5471 143.644 17.0424C144.14 17.5378 144.792 17.7824 145.604 17.7824C146.415 17.7824 147.068 17.5357 147.563 17.0424C148.058 16.5491 148.304 15.8597 148.304 14.9761ZM126.386 12.8209C126.741 13.4213 126.919 14.1431 126.919 14.9882C126.919 15.8334 126.743 16.5552 126.386 17.1556C126.031 17.7561 125.57 18.205 125.004 18.5022C124.439 18.7994 123.831 18.949 123.181 18.949C121.9 18.949 121.001 18.4597 120.48 17.4791C120.44 17.4023 120.389 17.3639 120.33 17.3639C120.27 17.3639 120.238 17.3922 120.238 17.4508V21.4682H118.889V11.2479H120.238V12.5297C120.238 12.5863 120.268 12.6166 120.33 12.6166C120.391 12.6166 120.44 12.5782 120.48 12.5014C121.001 11.5228 121.9 11.0315 123.181 11.0315C123.831 11.0315 124.439 11.1812 125.004 11.4784C125.57 11.7756 126.029 12.2244 126.386 12.8249V12.8209ZM125.568 14.9862C125.568 14.1027 125.321 13.4153 124.826 12.9199C124.331 12.4266 123.678 12.1799 122.867 12.1799C122.055 12.1799 121.403 12.4266 120.908 12.9199C120.412 13.4153 120.23 14.1027 120.23 14.9862C120.23 15.8698 120.412 16.5572 120.908 17.0525C121.403 17.5479 122.055 17.7925 122.867 17.7925C123.678 17.7925 124.331 17.5458 124.826 17.0525C125.321 16.5592 125.568 15.8698 125.568 14.9862ZM134.214 16.3429H135.64C135.451 17.0444 135.062 17.651 134.477 18.1645C133.891 18.6781 133.054 18.9348 131.964 18.9348C131.143 18.9348 130.421 18.7751 129.796 18.4516C129.171 18.1302 128.689 17.6732 128.347 17.0768C128.007 16.4824 127.837 15.7808 127.837 14.9741C127.837 14.1674 128.003 13.4678 128.332 12.8714C128.661 12.277 129.125 11.818 129.72 11.4966C130.315 11.1751 131.012 11.0133 131.813 11.0133C132.614 11.0133 133.277 11.1731 133.831 11.4885C134.386 11.8059 134.8 12.2264 135.077 12.7481C135.353 13.2717 135.489 13.8439 135.489 14.4686V15.332H129.263C129.312 16.08 129.575 16.6765 130.051 17.1172C130.525 17.558 131.165 17.7804 131.964 17.7804C132.614 17.7804 133.113 17.653 133.457 17.3983C133.802 17.1435 134.055 16.7917 134.216 16.3388L134.214 16.3429ZM129.233 14.2563H133.944C133.944 13.6033 133.77 13.0918 133.419 12.7218C133.069 12.3538 132.518 12.1678 131.768 12.1678C131.069 12.1678 130.495 12.3477 130.051 12.7076C129.607 13.0675 129.333 13.5831 129.233 14.2543V14.2563ZM150.744 18.7185H152.095V8.35262H150.744V18.7185ZM169.73 10.4149H171.307V8.7954H169.73V10.4149ZM175.555 17.6045C175.31 17.6287 175.162 17.6409 175.113 17.6409C175.043 17.6409 174.985 17.6207 174.947 17.5822C174.907 17.5438 174.885 17.4913 174.885 17.4225C174.885 17.376 174.898 17.2325 174.924 16.9979C174.947 16.7634 174.962 16.3995 174.962 15.9122V12.3296H176.887L176.507 11.2337H174.962V9.21796H173.612V11.2337H172.144V12.3296H173.612V16.2701C173.612 17.097 173.823 17.7096 174.244 18.114C174.664 18.5163 175.304 18.7185 176.165 18.7185H177.214V17.5681H176.689C176.179 17.5681 175.801 17.5802 175.557 17.6045H175.555ZM183.714 11.2317L181.479 17.5135C181.449 17.5903 181.402 17.6914 181.249 17.6914C181.096 17.6914 181.048 17.5903 181.018 17.5135L178.782 11.2317H177.405L179.994 18.7185H180.909C180.969 18.7185 181.014 18.7246 181.045 18.7327C181.075 18.7428 181.101 18.765 181.12 18.8054C181.158 18.8621 181.154 18.949 181.105 19.0642L180.684 20.158C180.623 20.3016 180.51 20.3744 180.34 20.3744C180.278 20.3744 180.14 20.3622 179.919 20.338C179.698 20.3137 179.416 20.3016 179.065 20.3016H177.969V21.452H179.409C180.251 21.452 180.754 21.3145 181.19 21.0416C181.626 20.7686 181.961 20.2854 182.204 19.594L185 11.5168V11.2297H183.714V11.2317ZM165.159 14.0259L163.043 11.2337H161.558V11.5208L164.093 14.7598L161.001 18.4314V18.7185H162.516L164.977 15.71L167.272 18.7185H168.727V18.4314L166.041 14.9761L168.955 11.535V11.2337H167.44L165.159 14.0259ZM169.873 18.7185H171.224V11.2337H169.873V18.7205V18.7185ZM160.984 16.3429C160.793 17.0444 160.406 17.651 159.822 18.1645C159.235 18.6781 158.398 18.9348 157.308 18.9348C156.488 18.9348 155.765 18.7751 155.14 18.4516C154.513 18.1302 154.033 17.6732 153.691 17.0768C153.351 16.4824 153.181 15.7808 153.181 14.9741C153.181 14.1674 153.347 13.4678 153.676 12.8714C154.008 12.277 154.469 11.818 155.064 11.4966C155.659 11.1751 156.356 11.0133 157.157 11.0133C157.958 11.0133 158.621 11.1731 159.176 11.4885C159.73 11.8059 160.145 12.2264 160.421 12.7481C160.697 13.2717 160.833 13.8439 160.833 14.4686V15.332H154.607C154.656 16.08 154.919 16.6765 155.395 17.1172C155.869 17.558 156.509 17.7804 157.308 17.7804C157.958 17.7804 158.457 17.653 158.802 17.3983C159.146 17.1435 159.399 16.7917 159.558 16.3388H160.984V16.3429ZM154.611 14.2563H159.322C159.322 13.6033 159.148 13.0918 158.797 12.7218C158.447 12.3538 157.896 12.1678 157.146 12.1678C156.445 12.1678 155.873 12.3477 155.429 12.7076C154.985 13.0675 154.711 13.5831 154.611 14.2543V14.2563Z" fill="#091717"/>
<path d="M100 8H101.325V12.1298H101.477C101.648 11.847 101.93 11.5707 102.326 11.3052C102.719 11.0396 103.281 10.9058 104.01 10.9058C104.673 10.9058 105.271 11.0591 105.803 11.3634C106.336 11.6678 106.757 12.119 107.065 12.717C107.374 13.315 107.528 14.185 107.528 15.0831C107.528 15.9812 107.374 16.8361 107.065 17.4362C106.755 18.0364 106.336 18.4897 105.803 18.7898C105.271 19.0921 104.673 19.2432 104.01 19.2432C103.281 19.2432 102.715 19.1093 102.311 18.8395C101.907 18.5696 101.616 18.2782 101.441 17.9651H101.289V19.0683H100V8ZM101.274 15.0831C101.274 16.0481 101.501 16.8987 101.956 17.4146C102.411 17.9306 103.005 18.1875 103.736 18.1875C104.467 18.1875 105.055 17.9306 105.511 17.4146C105.966 16.8987 106.192 16.0481 106.192 15.0831C106.192 14.1181 105.964 13.2503 105.511 12.7343C105.057 12.2183 104.465 11.9614 103.736 11.9614C103.007 11.9614 102.409 12.2183 101.956 12.7343C101.501 13.2503 101.274 14.1138 101.274 15.0831Z" fill="#091717"/>
<path d="M107.392 11.0806H108.687L111.089 17.6327H111.241L113.646 11.0806H114.941V11.3095L111.369 20.4564C111.209 20.8731 111.025 21.1904 110.82 21.415C110.615 21.6373 110.365 21.7906 110.07 21.8748C109.775 21.959 109.414 22 108.982 22H108.259V20.9508H108.847C109.228 20.9508 109.501 20.9033 109.664 20.8062C109.828 20.709 109.976 20.4996 110.113 20.1758L110.482 19.2777L107.394 11.3095V11.0806H107.392Z" fill="#091717"/>
<defs>
<clipPath id="clip0_437_1002">
<rect width="93" height="20" fill="white"/>
</clipPath>
</defs>
</svg>
